<?xml version="1.0" standalone="no"?>
<!DOCTYPE svg PUBLIC "-//W3C//DTD SVG 20010904//EN"
 "http://www.w3.org/TR/2001/REC-SVG-20010904/DTD/svg10.dtd">
<svg version="1.0" xmlns="http://www.w3.org/2000/svg"
 width="1024.000000pt" height="83.000000pt" viewBox="0 0 1024.000000 83.000000"
 preserveAspectRatio="xMidYMid meet">

<g transform="translate(0.000000,83.000000) scale(0.100000,-0.100000)"
fill="#000000" stroke="none">
<path d="M117 732 c-15 -16 -17 -53 -17 -319 0 -278 1 -301 18 -316 17 -15 55
-17 344 -17 302 0 326 1 341 18 15 16 17 53 17 319 0 278 -1 301 -18 316 -17
15 -55 17 -344 17 -302 0 -326 -1 -341 -18z m352 -113 c17 -6 36 -20 42 -31
10 -18 12 -18 28 -4 26 24 57 19 81 -11 19 -24 21 -37 17 -81 -5 -49 -4 -54
18 -62 32 -12 41 -51 20 -84 -21 -31 -81 -70 -95 -61 -6 4 -10 -7 -10 -27 0
-43 -15 -58 -57 -58 -31 0 -113 33 -113 46 0 3 5 2 12 -2 7 -4 8 -3 4 5 -5 8
-13 7 -29 -4 -53 -37 -93 -5 -104 84 -4 40 -3 51 8 51 8 0 -1 9 -18 20 -39 23
-43 55 -12 94 19 24 69 57 86 56 5 0 8 14 8 30 0 48 44 63 114 39z"/>
<path d="M384 596 c-8 -21 21 -71 55 -95 l29 -21 22 27 c34 43 23 57 -45 63
-47 4 -54 7 -35 12 14 4 39 8 55 8 23 0 27 3 15 10 -23 15 -90 12 -96 -4z"/>
<path d="M566 572 c-2 -4 12 -25 31 -46 36 -39 36 -39 29 -10 -11 44 -46 78
-60 56z"/>
<path d="M541 532 c-6 -11 -12 -35 -13 -54 -3 -32 -1 -33 35 -36 26 -2 39 1
43 11 6 17 -17 67 -40 86 -12 10 -17 9 -25 -7z"/>
<path d="M285 496 c-25 -32 -28 -66 -8 -66 9 0 45 92 39 98 -2 2 -16 -13 -31
-32z"/>
<path d="M318 475 c-12 -24 -19 -47 -16 -50 3 -3 26 -1 52 6 49 12 57 29 36
70 -19 34 -48 23 -72 -26z"/>
<path d="M453 433 c-18 -6 -16 -30 2 -37 9 -3 18 1 22 10 7 18 -7 33 -24 27z"/>
<path d="M560 397 c-29 -10 -34 -17 -32 -37 3 -32 26 -54 46 -47 17 7 41 41
51 75 8 26 -9 28 -65 9z"/>
<path d="M631 367 c-7 -23 -20 -51 -29 -62 -9 -11 0 -5 20 14 40 37 52 65 34
81 -10 7 -16 -1 -25 -33z"/>
<path d="M320 369 c0 -25 37 -89 51 -89 13 0 29 45 29 81 0 27 -2 29 -40 29
-34 0 -40 -3 -40 -21z"/>
<path d="M291 357 c-1 -23 27 -89 41 -98 6 -4 18 -5 25 -2 11 4 7 13 -16 37
-16 17 -34 42 -40 56 -7 18 -10 20 -10 7z"/>
<path d="M441 324 c-35 -44 -25 -59 42 -62 31 -2 57 1 57 5 0 5 -17 26 -39 47
l-38 37 -22 -27z"/>
<path d="M470 240 l-45 -6 36 -8 c45 -10 81 -5 87 12 4 13 -5 13 -78 2z"/>
<path d="M2022 544 c-24 -10 -32 -21 -38 -48 -6 -33 -2 -41 40 -86 25 -27 46
-56 46 -64 0 -23 -36 -39 -59 -26 -28 14 -31 13 -31 -15 0 -23 3 -25 48 -25
95 0 112 69 36 150 -52 55 -53 80 -4 80 23 0 30 5 30 19 0 25 -30 32 -68 15z"/>
<path d="M2243 553 c-65 -13 -106 -106 -84 -190 14 -52 40 -74 96 -80 41 -5
45 -4 45 16 0 16 -6 21 -26 21 -14 0 -34 5 -44 10 -27 15 -42 77 -29 123 11
40 33 57 73 57 19 0 26 5 26 19 0 15 -25 37 -33 30 -1 -1 -12 -4 -24 -6z"/>
<path d="M3543 553 l-43 -4 0 -135 0 -135 58 3 c49 3 57 6 57 23 0 15 -8 21
-33 23 -37 4 -47 20 -38 57 5 20 13 25 36 25 23 0 30 4 30 20 0 15 -7 20 -29
20 -34 0 -45 12 -36 40 5 15 15 20 41 20 31 0 35 3 32 22 -3 25 -11 27 -75 21z"/>
<path d="M4087 553 l-48 -4 3 -132 3 -132 58 -3 c55 -3 57 -2 57 23 0 22 -4
25 -36 25 -35 0 -35 1 -32 38 3 34 6 37 36 40 24 2 32 8 32 23 0 15 -7 19 -35
19 -32 0 -35 2 -35 30 0 28 3 30 35 30 31 0 35 3 35 25 0 14 -5 24 -12 23 -7
-1 -35 -3 -61 -5z"/>
<path d="M1053 537 c3 -7 18 -68 33 -135 25 -109 31 -122 50 -122 18 0 23 10
36 68 l14 67 11 -40 c6 -22 14 -52 17 -67 4 -19 13 -28 26 -28 20 0 19 -3 59
157 12 45 24 89 27 97 5 12 0 16 -20 16 -26 0 -34 -16 -52 -108 -9 -43 -20
-32 -28 25 -11 74 -15 83 -40 83 -20 0 -24 -6 -30 -50 -13 -97 -21 -101 -41
-22 -16 65 -19 72 -42 72 -17 0 -23 -4 -20 -13z"/>
<path d="M1417 539 c-42 -25 -61 -126 -36 -197 29 -84 139 -82 175 4 27 65 15
143 -27 183 -25 23 -81 28 -112 10z m73 -29 c11 -6 25 -28 31 -49 23 -77 -12
-150 -66 -137 -50 13 -64 128 -20 171 27 28 29 29 55 15z"/>
<path d="M1610 415 c0 -127 1 -135 19 -135 17 0 20 8 23 53 l3 52 28 -52 c22
-42 32 -53 52 -53 l25 0 -29 58 -29 57 25 29 c19 23 23 36 19 59 -10 50 -33
67 -88 67 l-48 0 0 -135z m78 83 c18 -18 14 -56 -7 -67 -24 -13 -31 -5 -31 34
0 44 14 57 38 33z"/>
<path d="M1800 530 c0 -15 7 -20 25 -20 l25 0 0 -115 c0 -108 1 -115 20 -115
19 0 20 7 20 115 l0 115 25 0 c18 0 25 5 25 20 0 18 -7 20 -70 20 -63 0 -70
-2 -70 -20z"/>
<path d="M2340 415 c0 -128 1 -135 20 -135 18 0 20 7 20 55 l0 55 35 0 35 0 0
-55 c0 -48 2 -55 20 -55 19 0 20 7 20 135 0 128 -1 135 -20 135 -18 0 -20 -7
-20 -55 l0 -55 -35 0 -35 0 0 55 c0 48 -2 55 -20 55 -19 0 -20 -7 -20 -135z"/>
<path d="M2860 531 c0 -13 8 -21 23 -23 21 -3 22 -6 19 -93 -4 -109 2 -135 28
-135 19 0 20 7 20 115 l0 115 25 0 c18 0 25 5 25 20 0 18 -7 20 -70 20 -62 0
-70 -2 -70 -19z"/>
<path d="M3042 533 c2 -12 14 -19 36 -21 17 -2 32 -7 32 -12 0 -5 -16 -53 -35
-106 -19 -53 -35 -100 -35 -105 0 -5 32 -9 70 -9 63 0 70 2 70 20 0 17 -7 20
-40 20 -22 0 -40 4 -40 10 0 5 16 53 35 106 19 53 35 100 35 105 0 5 -30 9
-66 9 -57 0 -65 -2 -62 -17z"/>
<path d="M3340 415 l0 -135 60 0 c53 0 60 2 60 20 0 16 -7 20 -35 20 l-35 0 0
115 0 115 -25 0 -25 0 0 -135z"/>
<path d="M3660 415 c0 -128 1 -135 20 -135 17 0 20 7 21 53 l0 52 27 -52 c20
-41 31 -53 49 -53 29 0 29 9 -2 69 -24 48 -24 49 -5 66 24 22 27 81 4 113 -12
18 -25 22 -65 22 l-49 0 0 -135z m78 83 c17 -17 15 -44 -4 -62 -25 -26 -34
-19 -34 29 0 46 13 58 38 33z"/>
<path d="M3850 416 c0 -128 1 -136 20 -136 17 0 19 8 22 78 l3 77 31 -75 c24
-56 37 -76 53 -78 20 -3 21 0 21 132 0 129 -1 136 -20 136 -18 0 -20 -7 -20
-77 0 -42 -3 -73 -7 -69 -4 4 -20 38 -34 74 -20 50 -32 68 -48 70 -21 3 -21 0
-21 -132z"/>
<path d="M4200 415 l0 -135 25 0 c23 0 25 3 26 53 l1 52 24 -52 c19 -44 28
-53 49 -53 14 0 25 2 25 5 0 3 -11 28 -25 56 l-26 50 21 28 c23 33 25 62 9 94
-17 32 -28 37 -81 37 l-48 0 0 -135z m88 62 c3 -28 -12 -57 -29 -57 -5 0 -9
21 -9 46 0 38 3 45 18 42 10 -2 18 -14 20 -31z"/>
<path d="M2640 509 c0 -5 5 -7 10 -4 6 3 10 8 10 11 0 2 -4 4 -10 4 -5 0 -10
-5 -10 -11z"/>
<path d="M2690 482 c0 -4 9 -8 19 -8 11 0 17 4 15 8 -3 4 -12 8 -20 8 -8 0
-14 -4 -14 -8z"/>
<path d="M2724 439 c-5 -8 -3 -9 6 -4 7 4 16 2 22 -6 8 -12 9 -12 6 0 -6 20
-24 25 -34 10z"/>
<path d="M3248 403 c-20 -3 -28 -10 -28 -24 0 -16 7 -19 40 -19 36 0 40 3 40
25 0 14 -5 24 -12 24 -7 -1 -25 -4 -40 -6z"/>
<path d="M2560 330 c0 -5 5 -10 11 -10 5 0 7 5 4 10 -3 6 -8 10 -11 10 -2 0
-4 -4 -4 -10z"/>
</g>
</svg>
